<svg width="1024" height="1024" viewBox="0 0 1024 1024" fill="none" xmlns="http://www.w3.org/2000/svg">
<path d="M431.181 780.684C358.335 780.65 287.32 757.845 228.075 715.458C168.829 673.072 124.316 613.225 100.763 544.291C77.2103 475.356 75.7964 400.784 96.719 331.006C117.642 261.228 159.854 199.737 217.451 155.135C275.047 110.533 345.145 85.0522 417.939 82.2573C490.732 79.4624 562.578 99.4934 623.425 139.548C684.271 179.602 731.075 237.676 757.286 305.643C783.497 373.611 787.806 448.073 769.608 518.61C767.702 525.376 763.223 531.126 757.129 534.629C751.036 538.132 743.813 539.109 737.007 537.352C730.202 535.594 724.355 531.241 720.72 525.226C717.085 519.21 715.95 512.01 717.559 505.168C723.818 481.005 726.962 456.141 726.915 431.181C726.915 372.69 709.57 315.513 677.075 266.88C644.579 218.247 598.392 180.342 544.354 157.959C490.315 135.575 430.853 129.719 373.487 141.13C316.12 152.541 263.425 180.706 222.066 222.065C180.707 263.425 152.541 316.119 141.13 373.486C129.719 430.853 135.576 490.315 157.959 544.353C180.343 598.391 218.248 644.578 266.881 677.074C315.514 709.57 372.691 726.914 431.181 726.914C491.533 727.113 550.466 708.621 599.884 673.978C628.84 654.101 653.892 629.066 673.79 600.125C677.823 594.239 684.028 590.196 691.041 588.885C698.054 587.574 705.301 589.103 711.187 593.135C717.073 597.167 721.116 603.372 722.427 610.386C723.738 617.399 722.209 624.646 718.177 630.532C694.587 664.818 664.919 694.495 630.64 718.096C572.204 759.039 502.533 780.901 431.181 780.684Z" fill="black"/>
<path d="M858.085 941.993C835.843 941.933 814.523 933.103 798.751 917.42L596.334 715.004C591.437 709.933 588.727 703.142 588.789 696.093C588.85 689.044 591.677 682.301 596.662 677.316C601.647 672.331 608.39 669.504 615.439 669.443C622.488 669.381 629.279 672.091 634.35 676.989L836.766 879.405C842.42 885.059 850.089 888.236 858.085 888.236C866.082 888.236 873.751 885.059 879.405 879.405C885.06 873.75 888.236 866.081 888.236 858.085C888.236 850.089 885.06 842.42 879.405 836.765L676.989 634.349C672.092 629.279 669.382 622.488 669.443 615.438C669.504 608.389 672.332 601.646 677.317 596.662C682.301 591.677 689.044 588.849 696.093 588.788C703.143 588.727 709.934 591.437 715.004 596.334L917.42 798.75C929.156 810.485 937.149 825.436 940.387 841.714C943.625 857.991 941.963 874.863 935.612 890.196C929.261 905.529 918.505 918.634 904.705 927.854C890.906 937.073 874.682 941.994 858.085 941.993Z" fill="black"/>
<path d="M592.491 484.95H269.872C255.612 484.95 241.935 479.285 231.851 469.201C221.768 459.117 216.103 445.441 216.103 431.18V350.525C216.103 343.395 218.935 336.557 223.977 331.515C229.019 326.473 235.857 323.641 242.987 323.641H619.375C626.506 323.641 633.344 326.473 638.386 331.515C643.428 336.557 646.26 343.395 646.26 350.525V431.18C646.26 445.441 640.595 459.117 630.511 469.201C620.428 479.285 606.751 484.95 592.491 484.95ZM269.872 377.41V431.18H592.491V377.41H269.872Z" fill="#47CE65"/>
<path d="M538.721 646.26H323.642C302.251 646.26 281.736 637.762 266.61 622.636C251.485 607.511 242.987 586.996 242.987 565.605V458.066C242.987 450.935 245.82 444.097 250.862 439.055C255.904 434.013 262.742 431.181 269.872 431.181H592.49C599.621 431.181 606.459 434.013 611.501 439.055C616.543 444.097 619.375 450.935 619.375 458.066V565.605C619.375 586.996 610.878 607.511 595.752 622.636C580.626 637.762 560.112 646.26 538.721 646.26ZM296.757 484.95V565.605C296.757 572.735 299.59 579.574 304.631 584.615C309.673 589.657 316.512 592.49 323.642 592.49H538.721C545.851 592.49 552.689 589.657 557.731 584.615C562.773 579.574 565.606 572.735 565.606 565.605V484.95H296.757Z" fill="#47CE65"/>
<path d="M538.721 377.412H323.642C316.511 377.412 309.673 374.579 304.631 369.537C299.589 364.495 296.757 357.657 296.757 350.527V296.757C296.757 275.366 305.254 254.851 320.38 239.726C335.506 224.6 356.02 216.103 377.411 216.103H484.951C506.342 216.103 526.857 224.6 541.982 239.726C557.108 254.851 565.605 275.366 565.605 296.757V350.527C565.605 357.657 562.773 364.495 557.731 369.537C552.689 374.579 545.851 377.412 538.721 377.412ZM350.527 323.642H511.836V296.757C511.836 289.627 509.003 282.789 503.961 277.747C498.919 272.705 492.081 269.872 484.951 269.872H377.411C370.281 269.872 363.443 272.705 358.401 277.747C353.359 282.789 350.527 289.627 350.527 296.757V323.642Z" fill="#47CE65"/>
</svg>
